<svg width="32" height="32" viewBox="0 0 32 32" fill="none" xmlns="http://www.w3.org/2000/svg">
<g clip-path="url(#clip0_985_150)">
<path d="M25 13C24.4473 13 24 12.5522 24 12V7C24 6.44775 24.4473 6 25 6C25.5527 6 26 6.44775 26 7V12C26 12.5522 25.5527 13 25 13Z" fill="#FF9900"/>
<path d="M16 32H4C1.79443 32 0 30.2056 0 28V4C0 3.44775 0.44775 3 1 3C1.55225 3 2 3.44775 2 4V28C2 29.103 2.89697 30 4 30H16C16.5522 30 17 30.4478 17 31C17 31.5522 16.5522 32 16 32Z" fill="#FF9900"/>
<path d="M25 8H4C1.79443 8 0 6.20557 0 4C0 1.79443 1.79443 0 4 0H25C25.3877 0 25.7402 0.22412 25.9053 0.57471C26.0703 0.9253 26.0176 1.33985 25.7695 1.63819C25.7666 1.6421 25 2.6128 25 4.00001C25 5.38722 25.7666 6.35792 25.7744 6.36769C26.0156 6.66749 26.0654 7.08205 25.8994 7.42921C25.7324 7.77638 25.3848 8 25 8ZM4 2C2.89697 2 2 2.89697 2 4C2 5.10303 2.89697 6 4 6H23.3506C23.1523 5.44336 23 4.76562 23 4C23 3.23438 23.1523 2.55664 23.3506 2H4Z" fill="#FF9900"/>
<path d="M22 27C22 27.5522 22.4473 28 23 28C23.5527 28 24 27.5522 24 27V24H27C27.5527 24 28 23.5522 28 23C28 22.4478 27.5527 22 27 22H24V19C24 18.4477 23.5527 18 23 18C22.4473 18 22 18.4477 22 19V22H19C18.4473 22 18 22.4478 18 23C18 23.5522 18.4473 24 19 24H22V27Z" fill="#FF9900"/>
<path d="M23 32C18.0371 32 14 27.9624 14 23C14 18.0376 18.0371 14 23 14C27.9629 14 32 18.0376 32 23C32 27.9624 27.9629 32 23 32ZM23 16C19.1406 16 16 19.1401 16 23C16 26.8599 19.1406 30 23 30C26.8594 30 30 26.8599 30 23C30 19.1401 26.8594 16 23 16Z" fill="#FF9900"/>
</g>
<defs>
<clipPath id="clip0_985_150">
<rect width="32" height="32" fill="white"/>
</clipPath>
</defs>
</svg>
