<svg width="36" height="39" viewBox="0 0 36 39" fill="none" xmlns="http://www.w3.org/2000/svg">
<path fill-rule="evenodd" clip-rule="evenodd" d="M36 19.4754C36 30.2314 27.9411 38.9508 18 38.9508C8.05887 38.9508 0 30.2314 0 19.4754C0 8.71944 8.05887 0 18 0C27.9411 0 36 8.71944 36 19.4754ZM9.32218 28.8656C8.94732 28.4601 8.94732 27.8025 9.32218 27.3969L16.6425 19.4765L9.32034 11.5542C8.94548 11.1486 8.94548 10.491 9.32034 10.0854C9.6952 9.67983 10.303 9.67983 10.6778 10.0854L18 18.0078L25.3222 10.0854C25.697 9.67983 26.3048 9.67983 26.6797 10.0854C27.0545 10.491 27.0545 11.1486 26.6797 11.5542L19.3575 19.4765L26.6778 27.3969C27.0527 27.8025 27.0527 28.4601 26.6778 28.8656C26.303 29.2712 25.6952 29.2712 25.3203 28.8656L18 20.9453L10.6797 28.8656C10.3048 29.2712 9.69704 29.2712 9.32218 28.8656Z" fill="#FF9900"/>
</svg>
