<svg width="16" height="19" viewBox="0 0 16 19" fill="none" xmlns="http://www.w3.org/2000/svg">
<path fill-rule="evenodd" clip-rule="evenodd" d="M0.297333 5.82188C0 6.49321 0 7.25695 0 8.78442V13.5549C0 15.6762 0 16.7368 0.634602 17.3959C1.21985 18.0036 2.13406 18.0509 3.875 18.0546V12.4297C3.875 11.292 4.7725 10.3047 5.95833 10.3047H9.20833C10.3942 10.3047 11.2917 11.292 11.2917 12.4297V18.0546C13.0326 18.0509 13.9468 18.0036 14.5321 17.3959C15.1667 16.7368 15.1667 15.6762 15.1667 13.5549V8.78442C15.1667 7.25695 15.1667 6.49321 14.8693 5.82188C14.572 5.15054 14.0136 4.65351 12.8968 3.65944L11.8135 2.69516C9.79488 0.898385 8.78559 0 7.58333 0C6.38108 0 5.37178 0.898385 3.35319 2.69516L2.26986 3.65944C1.15306 4.65351 0.594666 5.15054 0.297333 5.82188ZM9.29167 18.0549C9.29167 18.0548 9.29167 18.0547 9.29167 18.0547V12.4297C9.29167 12.3827 9.27418 12.3487 9.25405 12.3278C9.23455 12.3076 9.21896 12.3047 9.20833 12.3047H5.95833C5.9477 12.3047 5.93211 12.3076 5.91262 12.3278C5.89249 12.3487 5.875 12.3827 5.875 12.4297V18.0547C5.875 18.0547 5.875 18.0548 5.875 18.0549H9.29167Z" fill="#FF9900"/>
</svg>
