<svg width="16" height="17" viewBox="0 0 16 17" fill="none" xmlns="http://www.w3.org/2000/svg">
<path fill-rule="evenodd" clip-rule="evenodd" d="M3.0508 2H5.00005C6.10462 2 7.00005 2.89543 7.00005 4C7.00005 5.10457 6.10462 6 5.00005 6H3.00005V7H5.00005C6.10462 7 7.00005 7.89543 7.00005 9C7.00005 10.1046 6.10462 11 5.00005 11H3.00005V12H5.00005C6.10462 12 7.00005 12.8954 7.00005 14C7.00005 15.1046 6.10462 16 5.00005 16H3.29248C3.36869 16.1568 3.46475 16.2931 3.58584 16.4142C4.17162 17 5.11443 17 7.00005 17H12C13.8857 17 14.8285 17 15.4143 16.4142C16 15.8284 16 14.8856 16 13V4C16 2.11438 16 1.17157 15.4143 0.585786C14.8285 0 13.8857 0 12 0H7.00005C5.11443 0 4.17162 0 3.58584 0.585786C3.25924 0.912377 3.11474 1.34994 3.0508 2ZM12 7C11.4477 7 11 6.55228 11 6V4C11 3.44772 11.4477 3 12 3C12.5523 3 13 3.44772 13 4V6C13 6.55228 12.5523 7 12 7ZM1 3C0.447715 3 0 3.44772 0 4C0 4.55228 0.447715 5 1 5H5C5.55228 5 6 4.55228 6 4C6 3.44772 5.55228 3 5 3H1ZM1 8C0.447715 8 0 8.44772 0 9C0 9.55228 0.447715 10 1 10H5C5.55228 10 6 9.55228 6 9C6 8.44772 5.55228 8 5 8H1ZM1 13C0.447715 13 0 13.4477 0 14C0 14.5523 0.447715 15 1 15H5C5.55228 15 6 14.5523 6 14C6 13.4477 5.55228 13 5 13H1Z" fill="#FF9900"/>
</svg>
