<svg width="250" height="47" viewBox="0 0 250 47" fill="none" xmlns="http://www.w3.org/2000/svg">
<path d="M46.8 37H44V11H48.2L52.76 28.16L57.36 11H61.56V37H58.76V15.48L54.08 33H51.48L46.8 15.48V37ZM82.5469 16V32C82.5469 33.7867 81.9735 35.1733 80.8269 36.16C79.7069 37.12 78.0135 37.6 75.7469 37.6C73.5069 37.6 71.8135 37.12 70.6669 36.16C69.5202 35.1733 68.9469 33.7867 68.9469 32V16C68.9469 14.2133 69.5069 12.84 70.6269 11.88C71.7735 10.8933 73.4669 10.4 75.7069 10.4C77.9735 10.4 79.6802 10.8933 80.8269 11.88C81.9735 12.84 82.5469 14.2133 82.5469 16ZM79.7469 32V16C79.7469 13.8667 78.4135 12.8 75.7469 12.8C73.0802 12.8 71.7469 13.8667 71.7469 16V32C71.7469 34.1333 73.0802 35.2 75.7469 35.2C78.4135 35.2 79.7469 34.1333 79.7469 32ZM97.6175 37H93.4175L87.5375 11H90.3375L95.4975 33.92L100.698 11H103.498L97.6175 37ZM111.878 37H109.078V11H111.878V37ZM129.659 32V29.8H132.459V32C132.459 33.7867 131.913 35.1733 130.819 36.16C129.726 37.12 128.086 37.6 125.899 37.6C123.713 37.6 122.059 37.12 120.939 36.16C119.819 35.1733 119.259 33.7867 119.259 32V16C119.259 14.2133 119.806 12.84 120.899 11.88C121.993 10.8933 123.633 10.4 125.819 10.4C128.006 10.4 129.659 10.8933 130.779 11.88C131.899 12.84 132.459 14.2133 132.459 16V24.8H122.059V32C122.059 34.1333 123.326 35.2 125.859 35.2C128.393 35.2 129.659 34.1333 129.659 32ZM122.059 16V22.4H129.659V16C129.659 13.8667 128.393 12.8 125.859 12.8C123.326 12.8 122.059 13.8667 122.059 16ZM151.878 37H149.078V11H160.078V13.4H151.878V22.6H158.478V25H151.878V37ZM168.48 37H165.68V11H168.48V37ZM179.261 37H176.461V11H177.661L178.661 13.6C179.941 11.4667 181.714 10.4 183.981 10.4C187.901 10.4 189.861 12.2667 189.861 16V37H187.061V16C187.061 14.9867 186.834 14.2 186.381 13.64C185.954 13.08 185.154 12.8 183.981 12.8C182.808 12.8 181.728 13.2533 180.741 14.16C179.754 15.0667 179.261 15.9467 179.261 16.8V37ZM203.917 37H197.477V11H203.917C205.997 11 207.57 11.4933 208.637 12.48C209.73 13.4667 210.277 14.84 210.277 16.6V31.4C210.277 33.1867 209.743 34.5733 208.677 35.56C207.61 36.52 206.023 37 203.917 37ZM207.477 31.4V16.6C207.477 15.5867 207.17 14.8 206.557 14.24C205.943 13.68 205.063 13.4 203.917 13.4H200.277V34.6H203.917C206.29 34.6 207.477 33.5333 207.477 31.4ZM227.472 32V29.8H230.272V32C230.272 33.7867 229.725 35.1733 228.632 36.16C227.539 37.12 225.899 37.6 223.712 37.6C221.525 37.6 219.872 37.12 218.752 36.16C217.632 35.1733 217.072 33.7867 217.072 32V16C217.072 14.2133 217.619 12.84 218.712 11.88C219.805 10.8933 221.445 10.4 223.632 10.4C225.819 10.4 227.472 10.8933 228.592 11.88C229.712 12.84 230.272 14.2133 230.272 16V24.8H219.872V32C219.872 34.1333 221.139 35.2 223.672 35.2C226.205 35.2 227.472 34.1333 227.472 32ZM219.872 16V22.4H227.472V16C227.472 13.8667 226.205 12.8 223.672 12.8C221.139 12.8 219.872 13.8667 219.872 16ZM240.472 37H237.672V11H238.872L240.032 13.96C240.885 11.5867 242.245 10.4 244.112 10.4C247.285 10.4 248.872 12.1333 248.872 15.6V18.2H246.192V15.44C246.192 13.68 245.459 12.8 243.992 12.8C243.112 12.8 242.299 13.3067 241.552 14.32C240.832 15.3333 240.472 16.8 240.472 18.72V37Z" fill="#FF9900"/>
<path d="M18.235 18.6101L5.19838 8.59006C2.81006 6.75439 0 9.42407 0 13.5288V32.4712C0 36.5759 2.81006 39.2456 5.19838 37.4099L18.235 27.39C20.5883 25.5812 20.5883 20.4188 18.235 18.6101Z" fill="#FF9900"/>
</svg>
